<svg width="512" height="512" viewBox="0 0 512 512" xmlns="http://www.w3.org/2000/svg">
  <defs>
    <!-- Gradient for the background -->
    <linearGradient id="bgGradient" x1="0%" y1="0%" x2="100%" y2="0%">
      <stop offset="0%" style="stop-color:#003399;stop-opacity:1" />
      <stop offset="100%" style="stop-color:#003399;stop-opacity:1" />
    </linearGradient>
    
    <!-- Gradient for star opacity transition -->
    <linearGradient id="starGradient" x1="0%" y1="0%" x2="100%" y2="0%">
      <stop offset="0%" style="stop-color:#FFD700;stop-opacity:0.3" />
      <stop offset="20%" style="stop-color:#FFD700;stop-opacity:0.5" />
      <stop offset="40%" style="stop-color:#FFD700;stop-opacity:0.7" />
      <stop offset="60%" style="stop-color:#FFD700;stop-opacity:0.8" />
      <stop offset="80%" style="stop-color:#FFD700;stop-opacity:0.9" />
      <stop offset="100%" style="stop-color:#FFD700;stop-opacity:1" />
    </linearGradient>
  </defs>
  
  <!-- Background -->
  <rect width="512" height="512" fill="url(#bgGradient)" rx="64"/>
  
  <!-- Single star on the left (starting point) -->
  <g transform="translate(128, 256)">
    <path d="M0,-32 L9.4,-9.7 L32,-9.7 L13.3,4.3 L20.7,27 L0,13.3 L-20.7,27 L-13.3,4.3 L-32,-9.7 L-9.4,-9.7 Z" 
          fill="#FFD700" opacity="1"/>
  </g>
  
  <!-- Transition stars (2-11) with increasing opacity -->
  <g transform="translate(256, 256)">
    <!-- Star 2 -->
    <path d="M-80,-20 L-75.3,-12.1 L-67,-12.1 L-73.7,-6.1 L-71.3,2 L-80,-2.1 L-88.7,2 L-86.3,-6.1 L-93,-12.1 L-84.7,-12.1 Z" 
          fill="url(#starGradient)" opacity="0.4"/>
    
    <!-- Star 3 -->
    <path d="M-60,-25 L-55.3,-17.1 L-47,-17.1 L-53.7,-11.1 L-51.3,-3 L-60,-7.1 L-68.7,-3 L-66.3,-11.1 L-73,-17.1 L-64.7,-17.1 Z" 
          fill="url(#starGradient)" opacity="0.5"/>
    
    <!-- Star 4 -->
    <path d="M-40,-15 L-35.3,-7.1 L-27,-7.1 L-33.7,-1.1 L-31.3,7 L-40,3 L-48.7,7 L-46.3,-1.1 L-53,-7.1 L-44.7,-7.1 Z" 
          fill="url(#starGradient)" opacity="0.6"/>
    
    <!-- Star 5 -->
    <path d="M-20,-30 L-15.3,-22.1 L-7,-22.1 L-13.7,-16.1 L-11.3,-8 L-20,-12.1 L-28.7,-8 L-26.3,-16.1 L-33,-22.1 L-24.7,-22.1 Z" 
          fill="url(#starGradient)" opacity="0.7"/>
    
    <!-- Star 6 -->
    <path d="M0,-10 L4.7,-2.1 L13,-2.1 L6.3,3.9 L8.7,12 L0,8 L-8.7,12 L-6.3,3.9 L-13,-2.1 L-4.7,-2.1 Z" 
          fill="url(#starGradient)" opacity="0.8"/>
    
    <!-- Star 7 -->
    <path d="M20,-20 L24.7,-12.1 L33,-12.1 L26.3,-6.1 L28.7,2 L20,-2.1 L11.3,2 L13.7,-6.1 L7,-12.1 L15.3,-12.1 Z" 
          fill="url(#starGradient)" opacity="0.85"/>
    
    <!-- Star 8 -->
    <path d="M40,-25 L44.7,-17.1 L53,-17.1 L46.3,-11.1 L48.7,-3 L40,-7.1 L31.3,-3 L33.7,-11.1 L27,-17.1 L35.3,-17.1 Z" 
          fill="url(#starGradient)" opacity="0.9"/>
    
    <!-- Star 9 -->
    <path d="M60,-15 L64.7,-7.1 L73,-7.1 L66.3,-1.1 L68.7,7 L60,3 L51.3,7 L53.7,-1.1 L47,-7.1 L55.3,-7.1 Z" 
          fill="url(#starGradient)" opacity="0.95"/>
    
    <!-- Star 10 -->
    <path d="M80,-30 L84.7,-22.1 L93,-22.1 L86.3,-16.1 L88.7,-8 L80,-12.1 L71.3,-8 L73.7,-16.1 L67,-22.1 L75.3,-22.1 Z" 
          fill="url(#starGradient)" opacity="0.98"/>
    
    <!-- Star 11 -->
    <path d="M100,-10 L104.7,-2.1 L113,-2.1 L106.3,3.9 L108.7,12 L100,8 L91.3,12 L93.7,3.9 L87,-2.1 L95.3,-2.1 Z" 
          fill="url(#starGradient)" opacity="0.99"/>
  </g>
  
  <!-- Full EU circle on the right (destination) - Official EU flag layout -->
  <g transform="translate(384, 256)">
    <!-- 12 stars in perfect circle - Official EU flag arrangement -->
    <g>
      <!-- Star 1 (12 o'clock) -->
      <path d="M0,-18 L5.4,-5.4 L18,-5.4 L7.6,1.8 L11.7,13.5 L0,8.1 L-11.7,13.5 L-7.6,1.8 L-18,-5.4 L-5.4,-5.4 Z" 
            fill="#FFD700" opacity="1"/>
      
      <!-- Star 2 (1 o'clock) -->
      <path d="M15.6,-9 L18.1,-2.7 L23.4,-2.7 L19.5,1.4 L21.6,10.4 L15.6,6.3 L9.6,10.4 L11.7,1.4 L7.8,-2.7 L13.1,-2.7 Z" 
            fill="#FFD700" opacity="1"/>
      
      <!-- Star 3 (2 o'clock) -->
      <path d="M15.6,9 L18.1,2.7 L23.4,2.7 L19.5,-1.4 L21.6,-10.4 L15.6,-6.3 L9.6,-10.4 L11.7,-1.4 L7.8,2.7 L13.1,2.7 Z" 
            fill="#FFD700" opacity="1"/>
      
      <!-- Star 4 (3 o'clock) -->
      <path d="M18,0 L20.5,7.2 L25.8,7.2 L21.9,11.3 L24,20.3 L18,16.2 L12,20.3 L14.1,11.3 L10.2,7.2 L15.5,7.2 Z" 
            fill="#FFD700" opacity="1"/>
      
      <!-- Star 5 (4 o'clock) -->
      <path d="M15.6,9 L18.1,2.7 L23.4,2.7 L19.5,-1.4 L21.6,-10.4 L15.6,-6.3 L9.6,-10.4 L11.7,-1.4 L7.8,2.7 L13.1,2.7 Z" 
            fill="#FFD700" opacity="1" transform="rotate(120 15.6 9)"/>
      
      <!-- Star 6 (5 o'clock) -->
      <path d="M15.6,-9 L18.1,-2.7 L23.4,-2.7 L19.5,1.4 L21.6,10.4 L15.6,6.3 L9.6,10.4 L11.7,1.4 L7.8,-2.7 L13.1,-2.7 Z" 
            fill="#FFD700" opacity="1" transform="rotate(150 15.6 -9)"/>
      
      <!-- Star 7 (6 o'clock) -->
      <path d="M0,18 L5.4,5.4 L18,5.4 L7.6,-1.8 L11.7,-13.5 L0,-8.1 L-11.7,-13.5 L-7.6,-1.8 L-18,5.4 L-5.4,5.4 Z" 
            fill="#FFD700" opacity="1"/>
      
      <!-- Star 8 (7 o'clock) -->
      <path d="M-15.6,9 L-18.1,2.7 L-23.4,2.7 L-19.5,-1.4 L-21.6,-10.4 L-15.6,-6.3 L-9.6,-10.4 L-11.7,-1.4 L-7.8,2.7 L-13.1,2.7 Z" 
            fill="#FFD700" opacity="1"/>
      
      <!-- Star 9 (8 o'clock) -->
      <path d="M-15.6,-9 L-18.1,-2.7 L-23.4,-2.7 L-19.5,1.4 L-21.6,10.4 L-15.6,6.3 L-9.6,10.4 L-11.7,1.4 L-7.8,-2.7 L-13.1,-2.7 Z" 
            fill="#FFD700" opacity="1"/>
      
      <!-- Star 10 (9 o'clock) -->
      <path d="M-18,0 L-20.5,-7.2 L-25.8,-7.2 L-21.9,-11.3 L-24,-20.3 L-18,-16.2 L-12,-20.3 L-14.1,-11.3 L-10.2,-7.2 L-15.5,-7.2 Z" 
            fill="#FFD700" opacity="1"/>
      
      <!-- Star 11 (10 o'clock) -->
      <path d="M-15.6,-9 L-18.1,-2.7 L-23.4,-2.7 L-19.5,1.4 L-21.6,10.4 L-15.6,6.3 L-9.6,10.4 L-11.7,1.4 L-7.8,-2.7 L-13.1,-2.7 Z" 
            fill="#FFD700" opacity="1" transform="rotate(240 -15.6 -9)"/>
      
      <!-- Star 12 (11 o'clock) -->
      <path d="M-15.6,9 L-18.1,2.7 L-23.4,2.7 L-19.5,-1.4 L-21.6,-10.4 L-15.6,-6.3 L-9.6,-10.4 L-11.7,-1.4 L-7.8,2.7 L-13.1,2.7 Z" 
            fill="#FFD700" opacity="1" transform="rotate(300 -15.6 9)"/>
    </g>
  </g>
  
  <!-- Subtle connecting line/dots to show progression -->
  <g opacity="0.3">
    <circle cx="160" cy="256" r="3" fill="#FFD700"/>
    <circle cx="200" cy="256" r="2" fill="#FFD700"/>
    <circle cx="240" cy="256" r="2" fill="#FFD700"/>
    <circle cx="280" cy="256" r="2" fill="#FFD700"/>
    <circle cx="320" cy="256" r="2" fill="#FFD700"/>
    <circle cx="360" cy="256" r="3" fill="#FFD700"/>
  </g>
</svg>
